<svg width="163" height="175" viewBox="0 0 163 175" fill="none" xmlns="http://www.w3.org/2000/svg">
<path d="M47.2385 175C43.1202 175 39.6094 173.527 36.7061 170.581C33.8028 167.635 32.3511 164.093 32.3511 159.956C32.3511 155.819 33.8175 152.292 36.7501 149.375C39.6828 146.458 43.2083 145 47.3264 145C51.4447 145 54.9555 146.473 57.8588 149.419C60.7621 152.365 62.2137 155.907 62.2137 160.044C62.2137 164.181 60.7474 167.708 57.8148 170.625C54.8821 173.542 51.3566 175 47.2385 175ZM131.02 175C126.901 175 123.391 173.527 120.487 170.581C117.584 167.635 116.132 164.093 116.132 159.956C116.132 155.819 117.599 152.292 120.531 149.375C123.464 146.458 126.989 145 131.108 145C135.226 145 138.737 146.473 141.64 149.419C144.543 152.365 145.995 155.907 145.995 160.044C145.995 164.181 144.529 167.708 141.596 170.625C138.663 173.542 135.138 175 131.02 175ZM86.6845 70C84.6867 70 83.0121 69.3212 81.6607 67.9635C80.3093 66.6059 79.6336 64.9236 79.6336 62.9167C79.6336 60.9097 80.3093 59.2274 81.6607 57.8698C83.0121 56.5122 84.6867 55.8333 86.6845 55.8333C88.6822 55.8333 90.3568 56.5122 91.7082 57.8698C93.0597 59.2274 93.7354 60.9097 93.7354 62.9167C93.7354 64.9236 93.0597 66.6059 91.7082 67.9635C90.3568 69.3212 88.6822 70 86.6845 70ZM80.4631 41.6667V0H92.9059V41.6667H80.4631ZM47.2824 131.875C41.4758 131.875 37.2246 129.514 34.5286 124.792C31.8327 120.069 31.8673 115.278 34.6323 110.417L47.2824 87.2917L16.1756 20.8333H0V8.33333H24.056L59.3104 84.1667H119.865L152.216 25.8333L163 31.6667L131.271 89.375C129.977 91.6899 128.271 93.4838 126.153 94.7569C124.035 96.0301 121.524 96.6667 118.621 96.6667H56.4071L43.5496 119.375H145.995V131.875H47.2824Z" fill="#979797"/>
</svg>
